<svg xmlns="http://www.w3.org/2000/svg" xmlns:xlink="http://www.w3.org/1999/xlink" width="24" height="24" viewBox="0 0 24 24"><defs><style>.a,.b{fill:none;}.b{stroke:#fff;stroke-linecap:round;stroke-linejoin:round;stroke-miterlimit:10;stroke-width:1.5px;}.c{clip-path:url(#a);}</style><clipPath id="a"><path class="a" d="M0,24H24V0H0Z"/></clipPath></defs><path class="b" d="M4.5,0h9.005A4.5,4.5,0,0,1,18,4.5v9.009A4.5,4.5,0,0,1,13.505,18H4.5A4.5,4.5,0,0,1,0,13.505V4.5A4.5,4.5,0,0,1,4.5,0Z" transform="translate(3 3)"/><path class="b" d="M0,.5H5.4" transform="translate(11.1 12.4)"/><path class="b" d="M3.6,0H2.655A2.655,2.655,0,0,0,0,2.655V12.6" transform="translate(12.9 8.4)"/><path class="a" d="M0,24H24V0H0Z"/></svg>