<svg xmlns="http://www.w3.org/2000/svg" width="24" height="24" viewBox="0 0 24 24"><defs><style>.a,.b{fill:none;}.a{stroke:#fff;stroke-linecap:round;stroke-linejoin:round;stroke-miterlimit:10;stroke-width:1.5px;}</style></defs><path class="a" d="M4.5,0h9.009A4.5,4.5,0,0,1,18,4.5v9.009A4.5,4.5,0,0,1,13.505,18H4.5A4.5,4.5,0,0,1,0,13.505V4.5A4.5,4.5,0,0,1,4.5,0Z" transform="translate(3 3)"/><path class="a" d="M.5.162A.338.338,0,1,0,.838.5.338.338,0,0,0,.5.162" transform="translate(16.45 6.55)"/><path class="a" d="M0,3.6A3.6,3.6,0,1,1,3.6,7.2,3.6,3.6,0,0,1,0,3.6Z" transform="translate(8.4 8.4)"/><rect class="b" width="24" height="24"/></svg>