<svg xmlns="http://www.w3.org/2000/svg" xmlns:xlink="http://www.w3.org/1999/xlink" width="60" height="68" viewBox="0 0 60 68"><defs><style>.a{fill:none;}.b{fill:#fefefe;}.c{fill:red;}.d{fill:#020203;}.e{clip-path:url(#a);}.f{fill:#1d1d1b;}</style><clipPath id="a"><path class="a" d="M0,68H60V0H0Z"/></clipPath></defs><path class="b" d="M.145,0H59.5V34.857l-1.42,3.854L56.02,42.7l-1.807,2.8-4.289,5.342-4.09,4.119L39.163,60.5l-7.923,5.31-2.1,1.195-7.959-5.378-6.316-5.211-6.125-6.35L2.7,41.324.184,35.06,0,33.5Z" transform="translate(0 0.496)"/><path class="c" d="M39.5,0,9.395,25.81S0,14.64,0,9.038V0Z" transform="translate(0.5 25.81)"/><path class="d" d="M9.775,25.81h0l-.106-.13,10.3-8.722L9.776,25.81Zm-.261,0h0l-.067-.078c-.1-.116-2.439-2.886-4.719-6.235C1.589,14.889,0,11.375,0,9.053V0H.5V9.022a11.719,11.719,0,0,0,1.252,4.546A41.192,41.192,0,0,0,4.6,18.685,83.546,83.546,0,0,0,9.669,25.68l-.154.13Zm10.517-8.9h0L39.5,0H40Z" transform="translate(0 25.81)"/><path class="a" d="M0,68H60V0H0Z"/><g class="e"><path class="c" d="M0,16.876H19.5V0H0Z" transform="translate(20.5 0.496)"/><path class="c" d="M20.5,0,0,34.989l9.8,6.7Z" transform="translate(19.5 25.81)"/><path class="d" d="M9.82,43.183h0L9.8,43.169,11.257,37.3,9.82,43.182Zm-.022,0h0L0,36.238l.046-.081L20.5,0,11.257,37.3,20,1.489.5,36.478l9.3,6.691,0,.013Z" transform="translate(19.5 24.818)"/><path class="c" d="M0,.291.247,34.745l3.814-2.9L5.5,30.347.163.22.1,0Z" transform="translate(40 25.314)"/><path class="d" d="M.24,35.737h0l0-.5,3.442-2.826L5,30.932.014.581.211,0,.349.541,5.5,31.111,4.069,32.673.241,35.737Zm-.009-.5h0L.033,5.462l.2,29.775,0,0ZM.015,2.795,0,.622H0v0L.016,2.795Z" transform="translate(40 24.818)"/><path class="c" d="M0,0,10.095,24.818l2.552-2.708,3.3-4.8L17.5,14.431Z" transform="translate(40 25.81)"/><path class="d" d="M10.377,25.81h0l-.06-.149L0,0,18,15.016l-1.61,3.018-3.332,4.9-2.68,2.878ZM.5.5h0l9.812,24.817,2.419-2.642L16,17.785l1.5-2.865L.5.5Z" transform="translate(40 25.314)"/><path class="f" d="M2.443,9.431h0L2.16,9.138,3.489,7.763,1.783,4.944H0V4.53H1.783L3.489,1.711,2.118.293,2.4,0,3.826,1.474H7.357L8.677.108,8.96.4,7.694,1.711,9.4,4.53h2.1v.415H9.4L7.694,7.763,9.023,9.138,8.74,9.43,7.357,8H3.826L2.443,9.431Zm1.3-7.446L2,4.716l1.743,2.73H7.257L9,4.716,7.257,1.985H3.743Z" transform="translate(24.5 4.467)"/><path class="f" d="M29.312,68h0l-.125-.077A91.743,91.743,0,0,1,13.34,55.814,59.134,59.134,0,0,1,4.563,45.207C.641,39.032.027,34.953,0,34.782l0-.036L.017,0H60V35.379l-.01.035a39.8,39.8,0,0,1-7.2,13.3A68.694,68.694,0,0,1,42.561,58.97a86.927,86.927,0,0,1-13.12,8.961l-.13.068ZM.5,25.81l0,9.066A30.817,30.817,0,0,0,5.007,45.1a58.6,58.6,0,0,0,8.707,10.484A91.13,91.13,0,0,0,29.33,67.5a87.614,87.614,0,0,0,12.918-8.825A68.117,68.117,0,0,0,52.4,48.519a39.228,39.228,0,0,0,7.1-13.065V25.81Zm59-7.942-59,.05,0,7.4h59Zm-39-5.459h0v4.963l6.5-.005A10.1,10.1,0,0,1,20.5,12.409ZM.508.5.5,17.372,20,17.355V.5ZM40.5.5v16.38l19-.016V.5ZM40,11.416a9.648,9.648,0,0,1-6.5,5.46L40,16.87ZM30,.993c-5.238,0-9.5,3.563-9.5,7.942s4.262,7.942,9.5,7.942,9.5-3.563,9.5-7.942S35.238.993,30,.993ZM33.5.5h0a11.1,11.1,0,0,1,4,2.108A8.831,8.831,0,0,1,40,5.956V.5Zm-13,0V5.46A9.829,9.829,0,0,1,26.5.5Z" transform="translate(0 0)"/><path class="f" d="M0,8.359l2.038-.134A2.781,2.781,0,0,0,2.715,9.7a3.73,3.73,0,0,0,1.645.931,8.211,8.211,0,0,0,2.507.352,7.982,7.982,0,0,0,2.183-.274,3.161,3.161,0,0,0,1.408-.743,1.443,1.443,0,0,0,.461-1.028,1.318,1.318,0,0,0-.447-.986A3.551,3.551,0,0,0,9,7.248q-.658-.187-2.908-.581a18.815,18.815,0,0,1-3.154-.744A4.279,4.279,0,0,1,1.192,4.809,2.233,2.233,0,0,1,.615,3.316a2.516,2.516,0,0,1,.7-1.7A4.363,4.363,0,0,1,3.362.414a10.284,10.284,0,0,1,3-.414,10.831,10.831,0,0,1,3.2.425A4.617,4.617,0,0,1,11.7,1.686a3.012,3.012,0,0,1,.805,1.89l-2.072.118A2.3,2.3,0,0,0,9.3,1.976,5.6,5.6,0,0,0,6.449,1.4a5.859,5.859,0,0,0-2.856.532A1.506,1.506,0,0,0,2.7,3.206,1.239,1.239,0,0,0,3.335,4.27a10.665,10.665,0,0,0,3.26.85,27.732,27.732,0,0,1,3.616.76A4.982,4.982,0,0,1,12.318,7.1,2.451,2.451,0,0,1,13,8.806a2.693,2.693,0,0,1-.743,1.806,4.844,4.844,0,0,1-2.142,1.321,9.833,9.833,0,0,1-3.146.476,12.456,12.456,0,0,1-3.716-.469A5.155,5.155,0,0,1,.9,10.515,3.346,3.346,0,0,1,0,8.359" transform="translate(4 2.978)"/><path class="f" d="M0,11.416V0H10V1.347H1.962V4.883H8.918V6.23H1.962v5.186Z" transform="translate(45.5 3.474)"/><path class="f" d="M1.238,4.467,0,0H.633l.71,2.928q.115.46.2.914.178-.716.21-.826L2.639,0h.745l.668,2.261a11.549,11.549,0,0,1,.363,1.581q.089-.423.232-.972L5.379,0H6L4.72,4.467h-.6l-.983-3.4Q3.017.637,3,.539q-.073.308-.137.524l-.99,3.4Z" transform="translate(4 19.358)"/><path class="f" d="M0,4.467H.5V0H0Z" transform="translate(12 19.358)"/><path class="f" d="M0,4.467V0H.517l2,3.507V0H3V4.467H2.483l-2-3.51v3.51Z" transform="translate(15 19.358)"/><path class="f" d="M1.455,4.467V.527H0V0H3.5V.527H2.039v3.94Z" transform="translate(20 19.358)"/><path class="f" d="M0,4.467V0H3.391V.527H.621V1.9H3.215v.524H.621V3.94H3.5v.527Z" transform="translate(25 19.358)"/><path class="f" d="M.526,4.468H0V0H1.761a2.118,2.118,0,0,1,.807.12A.926.926,0,0,1,3.01.545a1.4,1.4,0,0,1,.165.674,1.209,1.209,0,0,1-.274.8,1.326,1.326,0,0,1-.845.414,1.374,1.374,0,0,1,.317.222,3.026,3.026,0,0,1,.436.594L3.5,4.466H2.839l-.526-.929c-.152-.266-.28-.474-.379-.616a1.26,1.26,0,0,0-.267-.3A.751.751,0,0,0,1.428,2.5a1.413,1.413,0,0,0-.293-.021H.526V4.467ZM.5.5V1.985H1.572A1.368,1.368,0,0,0,2.107,1.9a.6.6,0,0,0,.293-.27.843.843,0,0,0,.1-.4A.735.735,0,0,0,2.306.7.811.811,0,0,0,1.693.5Z" transform="translate(30 19.358)"/><path class="f" d="M1.515,4.467H0V0H1.49a1.666,1.666,0,0,1,.73.136.983.983,0,0,1,.431.417,1.208,1.208,0,0,1,.156.59,1.11,1.11,0,0,1-.138.539,1.039,1.039,0,0,1-.417.409,1.04,1.04,0,0,1,.554.405A1.183,1.183,0,0,1,3,3.172a1.45,1.45,0,0,1-.118.583,1.128,1.128,0,0,1-.292.416,1.162,1.162,0,0,1-.435.221A2.372,2.372,0,0,1,1.515,4.467ZM.5,2.482V3.971H1.525A2.234,2.234,0,0,0,1.9,3.95a.866.866,0,0,0,.315-.118.62.62,0,0,0,.208-.241A.793.793,0,0,0,2.5,3.226a.749.749,0,0,0-.118-.421.626.626,0,0,0-.327-.251,1.944,1.944,0,0,0-.6-.072ZM.5.5V1.985h.974a2.014,2.014,0,0,0,.568-.057.637.637,0,0,0,.343-.246.761.761,0,0,0,.115-.43A.856.856,0,0,0,2.393.821.558.558,0,0,0,2.085.565,2.38,2.38,0,0,0,1.4.5Z" transform="translate(35.5 19.358)"/><path class="f" d="M.676,4.467H0L1.847,0h.685L4.5,4.466H3.775L3.214,3.114H1.2L.676,4.467ZM2.224.5a4.94,4.94,0,0,1-.238.783L1.5,2.482H3L2.538,1.346C2.4,1,2.293.718,2.224.5Z" transform="translate(40 19.358)"/><path class="f" d="M3.4,2.879l.6.144A1.912,1.912,0,0,1,3.322,4.1a1.926,1.926,0,0,1-1.2.37,2.229,2.229,0,0,1-1.19-.284,1.8,1.8,0,0,1-.7-.824A2.824,2.824,0,0,1,0,2.2,2.45,2.45,0,0,1,.27,1.024,1.806,1.806,0,0,1,1.039.261,2.33,2.33,0,0,1,2.136,0,1.917,1.917,0,0,1,3.278.33a1.712,1.712,0,0,1,.645.928l-.59.133A1.332,1.332,0,0,0,2.877.7,1.259,1.259,0,0,0,2.123.489a1.513,1.513,0,0,0-.872.239,1.266,1.266,0,0,0-.492.641A2.473,2.473,0,0,0,.617,2.2a2.528,2.528,0,0,0,.168.962,1.21,1.21,0,0,0,.523.614,1.519,1.519,0,0,0,.769.2A1.327,1.327,0,0,0,2.929,3.7,1.4,1.4,0,0,0,3.4,2.879" transform="translate(46 19.358)"/><path class="f" d="M0,4.467V0H.506V1.834H2.494V0H3V4.467H2.494V2.362H.506V4.467Z" transform="translate(52.5 19.358)"/></g></svg>