<svg xmlns="http://www.w3.org/2000/svg" width="60" height="60" viewBox="0 0 60 60"><defs><style>.a{fill:none;}.b{fill:#fcea1c;}</style></defs><g transform="translate(0)"><rect class="a" width="60" height="60"/><g transform="translate(0 0.504)"><g transform="translate(0 0)"><path class="b" d="M29.649,0A29.648,29.648,0,1,0,59.3,29.65,29.648,29.648,0,0,0,29.649,0" transform="translate(0 0)"/></g><path d="M28.273,56.544a28.279,28.279,0,0,1-11-54.322,28.279,28.279,0,0,1,22.01,52.1A28.1,28.1,0,0,1,28.273,56.544Zm0-55.119A26.847,26.847,0,0,0,9.289,47.256,26.847,26.847,0,1,0,47.256,9.288,26.675,26.675,0,0,0,28.273,1.425Z" transform="translate(1.376 1.377)"/><path d="M3.647,11.163H2.886A2.673,2.673,0,0,1,0,8.783v-6.4A2.673,2.673,0,0,1,2.886,0h.761A2.673,2.673,0,0,1,6.532,2.381v6.4A2.672,2.672,0,0,1,3.647,11.163Zm-.42-8.986a1.022,1.022,0,0,0-1.089.934v5.1a1.021,1.021,0,0,0,1.089.932,1.02,1.02,0,0,0,1.088-.932v-5.1A1.021,1.021,0,0,0,3.227,2.177Z" transform="translate(21.929 41.128)"/><path d="M3.324,11.579a3.191,3.191,0,0,1-2.514-.968A4.029,4.029,0,0,1,.028,7.779H2.137a1.787,1.787,0,0,0,.279,1.268,1.129,1.129,0,0,0,.908.364,1.083,1.083,0,0,0,.832-.293,2.25,2.25,0,0,0,.28-1.628c-.01-.167-.019-.325-.019-.469l0-.005a3.236,3.236,0,0,1-1.111.2h-.09A3.209,3.209,0,0,1,0,4.023v-.83A3.21,3.21,0,0,1,3.219,0h.09A3.21,3.21,0,0,1,6.53,3.193v.192c0,.613.008,1.191.016,1.751.039,2.719.067,4.684-.928,5.692A3.073,3.073,0,0,1,3.324,11.579ZM3.4,2.405a1.021,1.021,0,0,0-1.054.983v.737A1.021,1.021,0,0,0,3.4,5.107a1.022,1.022,0,0,0,1.055-.982V3.388A1.022,1.022,0,0,0,3.4,2.405Z" transform="translate(30.491 40.841)"/><path d="M0,0H4.433L8.867,14.963,13.181,0h4.4L10.451,22.6H7.283Z" transform="translate(20.663 7.006)"/><path d="M7.561,22.247H0V0H7.759a8.306,8.306,0,0,1,2.79,1.148,6.207,6.207,0,0,1,1.918,1.925,6.1,6.1,0,0,1,.872,3.261,7.074,7.074,0,0,1-.93,3.8,3.359,3.359,0,0,1-.93,1.034,4.051,4.051,0,0,1,1.692,2.712,8.737,8.737,0,0,1,.208,1.88,6.445,6.445,0,0,1-.909,3.452,6.082,6.082,0,0,1-2,1.961,8.1,8.1,0,0,1-2.909,1.079Zm-3.484-9.1v5.186H7.693A2.471,2.471,0,0,0,9.5,15.756a2.472,2.472,0,0,0-1.807-2.571Zm-.04-9.025V9.064H7.68A2.4,2.4,0,0,0,9.5,6.612,2.4,2.4,0,0,0,7.68,4.156Z" transform="translate(38.318 18.209)"/><path d="M7.561,22.247H0V0H7.758a8.306,8.306,0,0,1,2.791,1.148,6.208,6.208,0,0,1,1.919,1.925,6.1,6.1,0,0,1,.872,3.261,7.074,7.074,0,0,1-.93,3.8,3.359,3.359,0,0,1-.93,1.034,4.052,4.052,0,0,1,1.692,2.712,8.731,8.731,0,0,1,.208,1.88,6.444,6.444,0,0,1-.909,3.452,6.082,6.082,0,0,1-2,1.961,8.105,8.105,0,0,1-2.91,1.079Zm-3.484-9.1v5.186H7.693A2.471,2.471,0,0,0,9.5,15.756a2.472,2.472,0,0,0-1.807-2.571ZM4.038,4.117V9.064H7.679A2.4,2.4,0,0,0,9.5,6.612,2.4,2.4,0,0,0,7.679,4.156Z" transform="translate(9.342 18.209)"/></g></g></svg>