<svg xmlns="http://www.w3.org/2000/svg" xmlns:xlink="http://www.w3.org/1999/xlink" width="60" height="60" viewBox="0 0 60 60"><defs><style>.a{fill:none;}.b{clip-path:url(#a);}.c{fill:#005ca8;}.d{fill:#fff;}.e{fill:#e20613;}</style><clipPath id="a"><path class="a" d="M0,0H60V60H0Z"/></clipPath></defs><g transform="translate(0)"><path class="a" d="M0,0H60V60H0Z"/><g class="b"><path class="c" d="M30,60A30,30,0,1,0,0,30,30,30,0,0,0,30,60" transform="translate(0)"/></g><path class="d" d="M28.522,57.044A28.522,28.522,0,1,0,0,28.522,28.522,28.522,0,0,0,28.522,57.044" transform="translate(1.478 1.478)"/><path class="e" d="M27.275,54.55A27.275,27.275,0,1,0,0,27.275,27.276,27.276,0,0,0,27.275,54.55" transform="translate(2.725 2.725)"/><path class="d" d="M17.255,34.51A17.255,17.255,0,1,0,0,17.255,17.255,17.255,0,0,0,17.255,34.51" transform="translate(12.745 12.745)"/><path class="d" d="M5.556,6.35,0,3.865,1.712,0,3.044.589,2.06,2.818l.925.421.937-2.127,1.25.555L4.236,3.794l2.048.922Z" transform="translate(6.157 17.672)"/><path class="d" d="M3.711,4.337l1.516.853A2.812,2.812,0,0,1,1.763,6.33,3.106,3.106,0,0,1,.12,2.535,2.993,2.993,0,0,1,3.66.047,2.48,2.48,0,0,1,5.888,2.612l-1.621.036C4.243,1.42,3.58,1.363,3.4,1.351,2.39,1.282,2.052,2.61,1.961,3.1c-.137.739-.137,1.717.481,1.923a1.025,1.025,0,0,0,1.27-.687" transform="translate(20.78 48.248)"/><path class="d" d="M4.486,3.033l1.451-.959a2.812,2.812,0,0,1-.566,3.6,3.107,3.107,0,0,1-4.128-.27,2.993,2.993,0,0,1-.6-4.285,2.481,2.481,0,0,1,3.3-.812L3.237,1.767c-1.1-.539-1.457.026-1.549.178-.523.87.5,1.776.9,2.082.594.459,1.464.905,1.93.449a1.025,1.025,0,0,0-.031-1.443" transform="translate(9.715 12.761)"/><path class="d" d="M2.673,7.1h0L0,1.543,2.5.271A2.321,2.321,0,0,1,3.57,0a1.656,1.656,0,0,1,1.4.666,1.438,1.438,0,0,1-.086,1.665h.034a1.679,1.679,0,0,1,1.494.841,1.829,1.829,0,0,1-.824,2.438C5.239,5.8,2.7,7.09,2.674,7.1Zm1.655-3.5a.853.853,0,0,0-.361.085l-.845.424.443.945L4.4,4.64a.666.666,0,0,0,.428-.489.468.468,0,0,0-.147-.43A.54.54,0,0,0,4.328,3.606ZM3.162,1.494a.856.856,0,0,0-.361.085l-.709.343.444.945.7-.338a.666.666,0,0,0,.429-.489.469.469,0,0,0-.147-.431A.541.541,0,0,0,3.162,1.494Z" transform="translate(16.755 6.869)"/><path class="d" d="M0,6.665H0L1.282.193,3.567,0,6.4,5.822l-1.818.224-.55-1.167-2.07.186L1.694,6.509,0,6.665ZM2.586,1.652,2.191,3.763l1.27-.086Z" transform="translate(24.067 4.802)"/><path class="d" d="M1.634,3.982,0,0,1.886.257l.853,2.3L4.192.581l1.832.26L3.4,4.23l-.32,2.383L1.313,6.365Z" transform="translate(30.583 4.566)"/><path class="d" d="M0,5.644,2.659,0,6.568,1.827,5.986,3.065,3.692,2l-.416.9L5.39,3.911,4.817,5.093,2.7,4.085,2.234,5.091l2.32,1.086L3.937,7.49Z" transform="translate(35.985 6.139)"/><path class="d" d="M1.93,7.28,0,1.347,4.1,0l.424,1.3-2.4.794.317.944L4.67,2.325,5.062,3.58l-2.231.713.347,1.054,2.435-.8.449,1.38Z" transform="translate(33.901 47.399)"/><path class="d" d="M5.558,6.683,0,3.851,1.947,0,3.166.62,2.029,2.879l.891.444L3.994,1.241l1.164.61L4.084,3.934l.991.5L6.233,2.148l1.293.658Z" transform="translate(45.84 36.938)"/><path class="d" d="M4,8.16H4L2.561,6.787,3.248,4.35l-.309-.377L1.335,5.8,0,4.608,4.113,0,6.328,1.977a2.046,2.046,0,0,1,.757,1.431,1.9,1.9,0,0,1-.473,1.251,1.811,1.811,0,0,1-1.363.557,2.612,2.612,0,0,1-.541-.059l-.7,3Zm.566-6h0l-.8.869.56.5a.8.8,0,0,0,.528.231.607.607,0,0,0,.381-.135.644.644,0,0,0,.2-.44.688.688,0,0,0-.283-.5l-.584-.521Z" transform="translate(40.791 9.518)"/><path class="d" d="M0,3.027,5.314,0l1.01,1.849-2.2,3.466L7.312,3.472l.863,1.546L2.827,8.045,1.776,6.157,4.11,2.518.793,4.433Z" transform="translate(45.129 15.057)"/><path class="d" d="M0,4.972,3.562,0l1.69,1.258L4.706,5.325,6.827,2.318,8.259,3.362,4.666,8.348,2.922,7.072l.6-4.281L1.309,5.917Z" transform="translate(13.124 44.129)"/><path class="d" d="M3.6,8.346,0,3.4l1.726-1.21,3.689,1.8L3.229,1.031,4.669,0l3.6,4.979L6.512,6.233,2.637,4.318,4.909,7.4Z" transform="translate(38.944 43.696)"/><path class="d" d="M0,1.538,6.011,0l.625,2.567L3.158,4.558l4,.137L7.735,7.19l-5.9,1.556L1.487,7.052,6,6.017,1.03,5.725l-.3-1.259L4.783,1.973.412,3.094Z" transform="translate(4.646 31.3)"/><path class="d" d="M.076,6.355,0,.194,1.781.158V2.445L3.729,2.4,3.671.037,5.461,0l.132,6.241L3.8,6.277l-.042-2.46-1.947.041.043,2.459Z" transform="translate(27.582 49.055)"/><path class="d" d="M6.709,5.236,0,6.131.362,4.3l4.775-.379L.862,1.775,1.212,0,7.083,3.342Z" transform="translate(47.885 30.598)"/><path class="d" d="M6.287,2.9,3.274,5.121a1.068,1.068,0,0,1-1.42.056,1.054,1.054,0,0,1-.14-.836,1.19,1.19,0,0,1,.5-.7L5.212,1.433,4.159,0,1.235,2.159a4.242,4.242,0,0,0-.774.777,2.087,2.087,0,0,0-.368.745,2.132,2.132,0,0,0-.082.82A2.212,2.212,0,0,0,.3,5.325,7.02,7.02,0,0,0,.789,6.1,2.508,2.508,0,0,0,4.4,6.5L7.339,4.328Z" transform="translate(8.719 39.101)"/><path class="d" d="M.892,0l.663.938L0,1.464Z" transform="translate(13.205 40.823)"/><path class="c" d="M3.323,12.7l.558-7.058L.557,0,0,7.058Z" transform="translate(33.918 21.86)"/><path class="c" d="M2.237,12.548l.577-7.31,3.5,5.953L6.9,3.881l3.5,5.953.577-7.309,3.5,5.953.577-7.31,3.5,5.953L19.039.753A15.915,15.915,0,0,0,0,8.732Z" transform="translate(15.803 14.092)"/><path class="c" d="M3.881,5.647.558,0,0,7.059l3.323,5.647Z" transform="translate(37.998 20.503)"/><path class="c" d="M0,7.06l3.323,5.647L3.88,5.647.557,0Z" transform="translate(29.837 23.216)"/><path class="c" d="M3.829,9.766A15.835,15.835,0,0,0,.473,0L0,5.971l3.653,6.16a16.09,16.09,0,0,0,.176-2.365" transform="translate(42.079 20.234)"/><path class="c" d="M0,0,2.774,4.72,3,1.529A15.855,15.855,0,0,0,0,0" transform="translate(35.67 15.137)"/><path class="c" d="M0,7.06l3.323,5.647.557-7.059L.557,0Z" transform="translate(21.676 25.929)"/><path class="c" d="M3.3,5.5.05,0C.02.4,0,.8,0,1.21a15.831,15.831,0,0,0,2.9,9.149Z" transform="translate(14.092 28.791)"/><path class="c" d="M16.773,0,16.2,7.31l-3.5-5.953-.577,7.309-3.5-5.953-.577,7.31L4.532,4.07l-.577,7.31L.451,5.427,0,11.132a15.866,15.866,0,0,0,5.339.922,15.9,15.9,0,0,0,13.8-8Z" transform="translate(24.66 33.855)"/><path class="c" d="M.182,0,0,2.369A15.887,15.887,0,0,0,2.372,3.754Z" transform="translate(20.847 40.638)"/><path class="c" d="M0,7.058,3.323,12.7,3.88,5.646.557,0Z" transform="translate(25.757 24.573)"/><path class="c" d="M3.881,5.647.558,0,0,7.059l3.323,5.647Z" transform="translate(17.595 27.287)"/></g></svg>