<svg xmlns="http://www.w3.org/2000/svg" xmlns:xlink="http://www.w3.org/1999/xlink" width="24" height="24" viewBox="0 0 24 24"><defs><style>.a,.b{fill:none;}.b{stroke:#fff;stroke-linecap:round;stroke-linejoin:round;stroke-miterlimit:10;stroke-width:1.5px;}.c{clip-path:url(#a);}</style><clipPath id="a"><path class="a" d="M0,24H24V0H0Z"/></clipPath></defs><path class="b" d="M6.3,15.3c-3.67,0-5.128-2-6.3-3.6.029-.006,2.673-.891,2.7-.9-.068-.069-.136-.14-.2-.21L3.869,9.98l-1.37.609h0A8.318,8.318,0,0,1,1.8,0,9.056,9.056,0,0,0,7.2,4.5,4.8,4.8,0,0,1,8.488,1.275,4.373,4.373,0,0,1,11.7,0a3.937,3.937,0,0,1,3.6,1.8H18L16.2,4.5a11.506,11.506,0,0,1-2.587,7.762A9.412,9.412,0,0,1,6.3,15.3Z" transform="translate(3 4.85)"/><path class="a" d="M0,24H24V0H0Z"/></svg>